<svg id="visual" viewBox="0 0 900 600" width="900" height="600" xmlns="http://www.w3.org/2000/svg" xmlns:xlink="http://www.w3.org/1999/xlink" version="1.1"><rect x="0" y="0" width="900" height="600" fill="#002233"></rect><path d="M0 424L21.5 426C43 428 86 432 128.8 440.2C171.7 448.3 214.3 460.7 257.2 454.5C300 448.3 343 423.7 385.8 422.2C428.7 420.7 471.3 442.3 514.2 442.7C557 443 600 422 642.8 418C685.7 414 728.3 427 771.2 423C814 419 857 398 878.5 387.5L900 377L900 601L878.5 601C857 601 814 601 771.2 601C728.3 601 685.7 601 642.8 601C600 601 557 601 514.2 601C471.3 601 428.7 601 385.8 601C343 601 300 601 257.2 601C214.3 601 171.7 601 128.8 601C86 601 43 601 21.5 601L0 601Z" fill="#0066FF" stroke-linecap="round" stroke-linejoin="miter"></path></svg>